<svg xmlns="http://www.w3.org/2000/svg" viewBox="0 0 32 32">
  <defs>
    <linearGradient id="syntx-fav-bg" x1="0" y1="0" x2="32" y2="32" gradientUnits="userSpaceOnUse">
      <stop offset="0%" stop-color="hsl(190 95% 50%)" />
      <stop offset="100%" stop-color="hsl(280 80% 60%)" />
    </linearGradient>
    <radialGradient id="syntx-fav-hl" cx="0.25" cy="0.2" r="0.7">
      <stop offset="0%" stop-color="white" stop-opacity="0.28" />
      <stop offset="55%" stop-color="white" stop-opacity="0.06" />
      <stop offset="100%" stop-color="white" stop-opacity="0" />
    </radialGradient>
    <linearGradient id="syntx-fav-dot" x1="0" y1="0" x2="1" y2="1">
      <stop offset="0%" stop-color="white" />
      <stop offset="100%" stop-color="hsl(190 100% 90%)" />
    </linearGradient>
  </defs>
  <rect x="1" y="1" width="30" height="30" rx="8" fill="url(#syntx-fav-bg)" />
  <rect x="1" y="1" width="30" height="30" rx="8" fill="url(#syntx-fav-hl)" />
  <rect x="1" y="1" width="30" height="30" rx="8" fill="none" stroke="white" stroke-opacity="0.10" stroke-width="1" />
  <path
    d="M22 9 H12 a3 3 0 0 0 -3 3 v0 a3 3 0 0 0 3 3 H20 a3 3 0 0 1 3 3 v0 a3 3 0 0 1 -3 3 H10"
    fill="none"
    stroke="white"
    stroke-width="2.6"
    stroke-linecap="round"
    stroke-linejoin="round"
  />
  <circle cx="22" cy="9" r="1.7" fill="url(#syntx-fav-dot)" />
</svg>
